<?xml version="1.0" encoding="UTF-8" standalone="no"?>
<!DOCTYPE svg PUBLIC "-//W3C//DTD SVG 1.1//EN" "http://www.w3.org/Graphics/SVG/1.1/DTD/svg11.dtd">
<!-- Created with Vectornator (http://vectornator.io/) -->
<svg height="100%" stroke-miterlimit="10" style="fill-rule:nonzero;clip-rule:evenodd;stroke-linecap:round;stroke-linejoin:round;" version="1.1" viewBox="0 0 1024 1024" width="100%" xml:space="preserve" xmlns="http://www.w3.org/2000/svg" xmlns:vectornator="http://vectornator.io" xmlns:xlink="http://www.w3.org/1999/xlink">
<defs/>
<g id="Ebene-2-kopieren" vectornator:layerName="Ebene 2 kopieren">
<path d="M621.371 317.314L663.642 222.71L691.372 234.349C691.372 234.349 702.095 231.054 745.226 278.234C788.357 325.414 812.722 376.656 812.722 376.656L824.754 424.528L825.752 445.21L719.467 445.417L680.74 364.569L645.271 329.644L621.371 317.314Z" fill="#303030" fill-rule="nonzero" opacity="1" stroke="#303030" stroke-linecap="butt" stroke-linejoin="round" stroke-width="17.5677"/>
<path d="M646.129 216.935C659.785 228.735 601.07 305.291 601.07 305.291C601.07 305.291 529.6 274.124 463.038 294.431C396.476 314.737 362.01 348.215 345.62 366.984C329.23 385.753 297.756 447.189 294.927 489.012C292.097 530.836 311.637 589.355 311.637 589.355L342.59 648.409L365.879 667.939C391.077 642.811 409.302 595.624 420.712 575.707C432.123 555.79 517.817 382.053 517.817 382.053L542.947 434.52L530.77 453.212L516.291 434.141L501.203 449.539L339.607 778.821C339.607 778.821 302.006 766.876 258.797 708.666C215.589 650.456 196.88 574.079 192.664 553.704C188.449 533.329 200.992 413.745 211.913 386.118C223.967 355.623 238.3 327.548 286.935 282.656C335.57 237.763 384.59 207.117 401.288 205.2C417.987 203.283 465.015 178.996 496.421 181.52C527.827 184.044 583.668 187.484 598.682 195.142C613.697 202.8 632.473 205.135 646.129 216.935Z" fill="#f44c4c" fill-rule="nonzero" opacity="1" stroke="#f44c4c" stroke-linecap="butt" stroke-linejoin="round" stroke-width="17.5677"/>
<path d="M607.059 322.522L664.078 206.881" fill="none" opacity="1" stroke="#000000" stroke-linecap="butt" stroke-linejoin="round" stroke-width="17.5677"/>
<path d="M405.56 689.152L393.767 722.091L443.635 737.788L513.63 600.284L527.956 617.747L547.416 644.784L557.3 670.137L575.228 701.54L593.922 734.169L638.577 715.627L661.785 703.675L687.99 774.219L755.084 715.23L790.007 666.126L817.194 621.006L825.999 587.378L722.666 582.947L677.866 668.054L650.597 668.058L548.924 449.533L507.266 550.572L450.597 664.405L430.609 703.32" fill="#303030" fill-rule="nonzero" opacity="1" stroke="#303030" stroke-linecap="butt" stroke-linejoin="round" stroke-width="17.5677"/>
<path d="M715.57 454.353C715.687 454.656 836.057 452.995 836.057 452.995C836.057 452.995 830.287 402.036 796.306 342.475C772.935 301.51 731.188 261.266 701.396 239.521C654.796 205.507 593.945 189.837 593.945 189.837C593.945 189.837 546.592 174.517 490.899 179.552C431.173 184.951 390.83 199.21 355.722 217.96C286.914 254.708 249.046 306.683 237.793 324.158C228.282 338.927 186.068 402.438 180.057 486.263C173.36 579.656 208.461 649.864 234.287 693.06C260.171 736.353 306.981 775.326 342.676 795.88C345.426 797.463 371.129 741.715 398.79 683.859C447.268 582.464 514.279 443.319 517.299 446.338C518.279 447.319 521.829 453.809 527.258 464.348C530.181 470.022 533.648 476.869 537.552 484.661C566.132 541.706 618.128 649.425 651.325 718.469C657.502 731.318 663.386 743.968 668.459 755.068C678.299 776.592 685.094 792.284 685.094 792.284C685.094 792.284 805.552 728.227 837.795 570.879C837.967 570.039 711.646 569.513 711.646 569.513C711.646 569.513 711.504 604.651 660.979 659.827C655.635 665.663 518.13 356.492 518.13 356.492L444.542 508.834L367.747 665.153C367.747 665.153 292.329 598.05 302.549 491.924C308.001 435.313 332.785 395.141 363.021 364.42C389.771 337.242 420.388 322.128 442.014 313.55C460.751 306.119 496.178 300.208 523.451 301.899C561.401 304.251 601.518 313.342 648.851 352.685C685.747 383.354 705.516 428.267 715.57 454.353Z" fill="none" opacity="1" stroke="#000000" stroke-linecap="butt" stroke-linejoin="round" stroke-width="17.5677"/>
<path d="M631.889 716.498C631.889 716.498 601.541 726.83 657.063 696.786C660.671 694.833 549.924 477.65 549.924 477.65L532.02 513.534L631.889 716.498Z" fill="#303030" fill-rule="nonzero" opacity="1" stroke="#303030" stroke-linecap="butt" stroke-linejoin="round" stroke-width="17.5677"/>
<path d="M550.493 436.9L426.637 697.836L400.244 683.565L383.126 720.233C383.126 720.233 426.131 755.547 451.274 749.239C463.457 746.182 518.222 616.053 518.222 616.053C518.222 616.053 568.493 711.512 587.814 748.201C594.442 760.786 653.401 718.012 653.401 718.012" fill="none" opacity="1" stroke="#000000" stroke-linecap="butt" stroke-linejoin="round" stroke-width="17.5677"/>
</g>
</svg>
